<svg width="96" height="32" viewBox="0 0 96 32" fill="none" xmlns="http://www.w3.org/2000/svg">
<path d="M20.4769 7.34854L14.204 3.55509C13.6119 3.19292 12.9388 3.0015 12.2532 3.00031C10.2094 3.00031 8.33473 4.71225 8.33473 7.10502V21.3073L20.4769 13.9669C22.9082 12.4947 22.9082 8.81996 20.4769 7.34854ZM11.8484 14.448V6.86793L18.1163 10.6567L11.8484 14.448Z" fill="#4C68D5"/>
<path d="M23.8489 28.9844C23.8489 29.0273 11.9908 28.966 11.9908 28.966L10.9433 28.8425C9.24669 28.644 7.94423 27.1233 8.00195 25.3346C8.00195 25.2917 8.00563 25.2519 8.00809 25.2103C8.05468 24.4365 8.32605 23.6961 8.7858 23.0885C8.9725 22.8461 9.20088 22.6425 9.45913 22.4882L18.4781 17.0725C20.3414 15.9535 21.8931 15.562 22.6999 13.5341C22.9974 12.7757 23.1259 11.9562 23.0756 11.1379L23.0445 10.5865L23.9651 15.9204C24.083 16.8264 23.9013 17.7537 23.4211 18.5169C23.1326 18.9785 22.7475 19.3653 22.2951 19.6479L11.8295 24.8943C11.8191 24.9006 11.8089 24.9074 11.7992 24.9149C11.5127 25.1293 11.6895 25.6069 12.0403 25.5867L20.7515 25.6403C22.4432 25.5417 23.8525 27.2112 23.8489 28.9844Z" fill="#4C68D5"/>
<path d="M50.156 22.77C49.196 22.77 48.329 22.602 47.555 22.266C46.787 21.924 46.154 21.438 45.656 20.808C45.164 20.172 44.852 19.416 44.72 18.54L47.276 18.162C47.456 18.906 47.828 19.479 48.392 19.881C48.956 20.283 49.598 20.484 50.318 20.484C50.72 20.484 51.11 20.421 51.488 20.295C51.866 20.169 52.175 19.983 52.415 19.737C52.661 19.491 52.784 19.188 52.784 18.828C52.784 18.696 52.763 18.57 52.721 18.45C52.685 18.324 52.622 18.207 52.532 18.099C52.442 17.991 52.313 17.889 52.145 17.793C51.983 17.697 51.776 17.61 51.524 17.532L48.158 16.542C47.906 16.47 47.612 16.368 47.276 16.236C46.946 16.104 46.625 15.915 46.313 15.669C46.001 15.423 45.74 15.099 45.53 14.697C45.326 14.289 45.224 13.776 45.224 13.158C45.224 12.288 45.443 11.565 45.881 10.989C46.319 10.413 46.904 9.984 47.636 9.702C48.368 9.42 49.178 9.282 50.066 9.288C50.96 9.3 51.758 9.453 52.46 9.747C53.162 10.041 53.75 10.47 54.224 11.034C54.698 11.592 55.04 12.276 55.25 13.086L52.604 13.536C52.508 13.116 52.331 12.762 52.073 12.474C51.815 12.186 51.506 11.967 51.146 11.817C50.792 11.667 50.42 11.586 50.03 11.574C49.646 11.562 49.283 11.616 48.941 11.736C48.605 11.85 48.329 12.018 48.113 12.24C47.903 12.462 47.798 12.726 47.798 13.032C47.798 13.314 47.885 13.545 48.059 13.725C48.233 13.899 48.452 14.04 48.716 14.148C48.98 14.256 49.25 14.346 49.526 14.418L51.776 15.03C52.112 15.12 52.484 15.24 52.892 15.39C53.3 15.534 53.69 15.738 54.062 16.002C54.44 16.26 54.749 16.602 54.989 17.028C55.235 17.454 55.358 17.994 55.358 18.648C55.358 19.344 55.211 19.953 54.917 20.475C54.629 20.991 54.239 21.42 53.747 21.762C53.255 22.098 52.697 22.35 52.073 22.518C51.455 22.686 50.816 22.77 50.156 22.77ZM61.0802 22.77C60.1022 22.77 59.2442 22.551 58.5062 22.113C57.7682 21.675 57.1922 21.072 56.7782 20.304C56.3702 19.53 56.1662 18.642 56.1662 17.64C56.1662 16.626 56.3762 15.735 56.7962 14.967C57.2162 14.193 57.7952 13.59 58.5332 13.158C59.2712 12.726 60.1202 12.51 61.0802 12.51C62.0582 12.51 62.9162 12.729 63.6542 13.167C64.3982 13.605 64.9772 14.211 65.3912 14.985C65.8052 15.753 66.0122 16.638 66.0122 17.64C66.0122 18.648 65.8022 19.539 65.3822 20.313C64.9682 21.081 64.3892 21.684 63.6452 22.122C62.9072 22.554 62.0522 22.77 61.0802 22.77ZM61.0802 20.484C61.8662 20.484 62.4512 20.22 62.8352 19.692C63.2252 19.158 63.4202 18.474 63.4202 17.64C63.4202 16.776 63.2222 16.086 62.8262 15.57C62.4362 15.054 61.8542 14.796 61.0802 14.796C60.5462 14.796 60.1082 14.916 59.7662 15.156C59.4242 15.396 59.1692 15.729 59.0012 16.155C58.8392 16.581 58.7582 17.076 58.7582 17.64C58.7582 18.51 58.9532 19.203 59.3432 19.719C59.7392 20.229 60.3182 20.484 61.0802 20.484ZM71.6453 22.77C70.6373 22.77 69.7733 22.545 69.0533 22.095C68.3333 21.645 67.7813 21.033 67.3973 20.259C67.0133 19.485 66.8213 18.612 66.8213 17.64C66.8213 16.656 67.0193 15.777 67.4153 15.003C67.8173 14.229 68.3813 13.62 69.1073 13.176C69.8333 12.732 70.6913 12.51 71.6813 12.51C72.8273 12.51 73.7873 12.801 74.5613 13.383C75.3413 13.959 75.8393 14.748 76.0553 15.75L73.6073 16.398C73.4633 15.894 73.2113 15.501 72.8513 15.219C72.4973 14.937 72.0953 14.796 71.6453 14.796C71.1293 14.796 70.7063 14.922 70.3763 15.174C70.0463 15.42 69.8033 15.759 69.6473 16.191C69.4913 16.617 69.4133 17.1 69.4133 17.64C69.4133 18.486 69.5993 19.173 69.9713 19.701C70.3493 20.223 70.9073 20.484 71.6453 20.484C72.1973 20.484 72.6173 20.358 72.9053 20.106C73.1933 19.854 73.4093 19.494 73.5533 19.026L76.0553 19.548C75.7793 20.58 75.2573 21.375 74.4893 21.933C73.7213 22.491 72.7733 22.77 71.6453 22.77ZM77.1418 11.43V9.27H79.5898V11.43H77.1418ZM77.1418 22.5V12.78H79.5898V22.5H77.1418ZM84.358 22.77C83.662 22.77 83.071 22.638 82.585 22.374C82.105 22.104 81.739 21.747 81.487 21.303C81.241 20.853 81.118 20.358 81.118 19.818C81.118 19.368 81.187 18.957 81.325 18.585C81.463 18.213 81.685 17.886 81.991 17.604C82.303 17.316 82.72 17.076 83.242 16.884C83.602 16.752 84.031 16.635 84.529 16.533C85.027 16.431 85.591 16.335 86.221 16.245C86.851 16.149 87.544 16.044 88.3 15.93L87.418 16.416C87.418 15.84 87.28 15.417 87.004 15.147C86.728 14.877 86.266 14.742 85.618 14.742C85.258 14.742 84.883 14.829 84.493 15.003C84.103 15.177 83.83 15.486 83.674 15.93L81.46 15.228C81.706 14.424 82.168 13.77 82.846 13.266C83.524 12.762 84.448 12.51 85.618 12.51C86.476 12.51 87.238 12.642 87.904 12.906C88.57 13.17 89.074 13.626 89.416 14.274C89.608 14.634 89.722 14.994 89.758 15.354C89.794 15.714 89.812 16.116 89.812 16.56V22.5H87.67V20.502L87.976 20.916C87.502 21.57 86.989 22.044 86.437 22.338C85.891 22.626 85.198 22.77 84.358 22.77ZM84.88 20.844C85.33 20.844 85.708 20.766 86.014 20.61C86.326 20.448 86.572 20.265 86.752 20.061C86.938 19.857 87.064 19.686 87.13 19.548C87.256 19.284 87.328 18.978 87.346 18.63C87.37 18.276 87.382 17.982 87.382 17.748L88.102 17.928C87.376 18.048 86.788 18.15 86.338 18.234C85.888 18.312 85.525 18.384 85.249 18.45C84.973 18.516 84.73 18.588 84.52 18.666C84.28 18.762 84.085 18.867 83.935 18.981C83.791 19.089 83.683 19.209 83.611 19.341C83.545 19.473 83.512 19.62 83.512 19.782C83.512 20.004 83.566 20.196 83.674 20.358C83.788 20.514 83.947 20.634 84.151 20.718C84.355 20.802 84.598 20.844 84.88 20.844ZM91.7021 22.5V9.27H94.1501V22.5H91.7021Z" fill="#0C1024"/>
</svg>
